<svg width="20" height="18" fill="none" xmlns="http://www.w3.org/2000/svg"><path d="M18.97 5.771c-.262-2.765-2.31-4.77-4.871-4.77-1.707 0-3.27.877-4.149 2.285C9.08 1.86 7.58 1 5.901 1 3.34 1 1.292 3.006 1.03 5.77c-.02.123-.106.766.153 1.814.373 1.511 1.235 2.887 2.492 3.975L9.946 17l6.379-5.44c1.257-1.09 2.119-2.464 2.492-3.976.259-1.048.174-1.69.153-1.813zm-.827 1.661c-.34 1.38-1.13 2.639-2.281 3.636L9.95 16.11l-5.81-5.041c-1.153-.999-1.942-2.256-2.283-3.637-.245-.992-.144-1.552-.144-1.556l.005-.033c.225-2.423 1.984-4.181 4.183-4.181 1.623 0 3.05.953 3.729 2.487l.319.723.318-.723A4.186 4.186 0 0114.1 1.662c2.199 0 3.958 1.759 4.188 4.212 0 .006.101.566-.144 1.558z" fill="#1B1A17" stroke="#1B1A17" stroke-width=".25"/></svg>